<svg width="50" height="42" viewBox="0 0 50 42" fill="none" xmlns="http://www.w3.org/2000/svg">
<path d="M33.4817 3.8241V7.63233H32.0219C29.7846 7.63233 26.0874 8.50505 24.3261 9.42538C24.0405 9.56819 23.7549 9.69513 23.6755 9.69513C23.263 9.69513 20.4861 11.7421 19.2802 12.948C18.5185 13.7096 16.8207 15.7883 16.8207 15.9629C16.8207 16.0422 16.6461 16.3278 16.424 16.6134C16.2018 16.899 16.0273 17.1847 16.0273 17.264C16.0273 17.3433 15.8686 17.6448 15.6623 17.9463C14.6627 19.4855 13.3933 23.3413 12.9331 26.2768C12.584 28.4666 12.5682 28.5776 12.6316 28.5776C12.6475 28.5776 13.2822 27.6414 14.028 26.5148C14.7896 25.3724 15.5195 24.3251 15.6782 24.1664C15.821 24.0078 16.2336 23.5159 16.5827 23.0874C18.2964 20.977 20.4861 19.1999 22.6124 18.2161C24.7545 17.2164 27.8487 16.5817 31.4665 16.4071L33.4817 16.3119V20.3899C33.4817 24.4679 33.4817 24.4679 33.8149 24.2934C34.1164 24.1188 36.56 22.3099 40.5904 19.2633C41.4949 18.581 42.3835 17.9146 42.5739 17.7876C42.7643 17.6607 43.5577 17.0736 44.3511 16.4865C46.4139 14.9473 46.7312 14.7252 48.4449 13.424L50 12.2498L49.3652 11.8214C49.0003 11.5834 48.7147 11.3295 48.7147 11.266C48.7147 11.1867 48.6512 11.1232 48.556 11.1232C48.4767 11.1232 47.5722 10.4885 46.5408 9.711C45.5094 8.91761 44.2559 7.98142 43.7481 7.6006C43.2403 7.21977 42.5263 6.68027 42.1613 6.37879C41.7964 6.0773 41.241 5.68061 40.9395 5.47433C40.3207 5.04591 39.1941 4.20492 37.29 2.7451C36.5759 2.2056 35.9412 1.7613 35.8619 1.7613C35.7825 1.7613 35.6556 1.6661 35.5921 1.55502C35.4334 1.31701 34.3386 0.444286 33.8467 0.190403L33.4817 -7.62939e-06V3.8241Z" fill="#378BFF"/>
<path d="M1.8258 8.23553C1.20697 8.44181 0.492922 9.12412 0.239039 9.72709C0.0327598 10.2666 0.00102451 12.1231 0.00102451 24.8172C0.00102451 41.034 -0.0783137 39.8598 1.15936 40.8594L1.7782 41.3513L21.1685 41.3989L40.5587 41.4307L41.3045 40.9546C42.5581 40.1613 42.5263 40.3834 42.5263 32.1481V24.9283L41.8758 25.3885C41.5267 25.6423 40.9237 26.1342 40.5429 26.4675C40.1779 26.8007 39.7336 27.1815 39.5749 27.3085C39.4004 27.4354 38.8926 27.8638 38.4483 28.2446L37.6074 28.9428V32.7352V36.5117H21.2637H4.92V24.7696V13.0276H8.6489H12.3778L13.0442 12.2977C14.266 10.9965 15.4561 9.90163 16.4716 9.15586C17.0111 8.75916 17.4554 8.36247 17.4554 8.26727C17.4554 8.09272 2.3653 8.06099 1.8258 8.23553Z" fill="#378BFF"/>
</svg>
