<svg width="195" height="35" viewBox="0 0 195 35" fill="none" xmlns="http://www.w3.org/2000/svg">
<path d="M16.5223 4.5528C16.7485 3.49942 18.2515 3.49942 18.4777 4.5528L20.2125 12.6309C20.3196 13.1297 20.7851 13.4679 21.2926 13.4156L29.5114 12.5692C30.5831 12.4589 31.0476 13.8883 30.1156 14.429L22.969 18.5751C22.5277 18.8311 22.3499 19.3783 22.5564 19.8449L25.9012 27.3998C26.3373 28.385 25.1214 29.2684 24.3192 28.5492L18.1676 23.0336C17.7877 22.6929 17.2123 22.6929 16.8324 23.0336L10.6808 28.5492C9.87864 29.2684 8.66269 28.385 9.09885 27.3998L12.4436 19.8449C12.6501 19.3783 12.4723 18.8311 12.031 18.5751L4.88436 14.429C3.95243 13.8883 4.41688 12.4589 5.48861 12.5692L13.7074 13.4156C14.2149 13.4679 14.6804 13.1297 14.7875 12.6309L16.5223 4.5528Z" fill="#FED97C"/>
<path d="M56.5223 4.5528C56.7485 3.49942 58.2515 3.49942 58.4777 4.5528L60.2125 12.6309C60.3196 13.1297 60.7851 13.4679 61.2926 13.4156L69.5114 12.5692C70.5831 12.4589 71.0476 13.8883 70.1156 14.429L62.969 18.5751C62.5277 18.8311 62.3499 19.3783 62.5564 19.8449L65.9012 27.3998C66.3373 28.385 65.1214 29.2684 64.3192 28.5492L58.1676 23.0336C57.7877 22.6929 57.2123 22.6929 56.8324 23.0336L50.6808 28.5492C49.8786 29.2684 48.6627 28.385 49.0988 27.3998L52.4436 19.8449C52.6501 19.3783 52.4723 18.8311 52.031 18.5751L44.8844 14.429C43.9524 13.8883 44.4169 12.4589 45.4886 12.5692L53.7074 13.4156C54.2149 13.4679 54.6804 13.1297 54.7875 12.6309L56.5223 4.5528Z" fill="#FED97C"/>
<path d="M96.5223 4.5528C96.7485 3.49942 98.2515 3.49942 98.4777 4.5528L100.212 12.6309C100.32 13.1297 100.785 13.4679 101.293 13.4156L109.511 12.5692C110.583 12.4589 111.048 13.8883 110.116 14.429L102.969 18.5751C102.528 18.8311 102.35 19.3783 102.556 19.8449L105.901 27.3998C106.337 28.385 105.121 29.2684 104.319 28.5492L98.1676 23.0336C97.7877 22.6929 97.2123 22.6929 96.8324 23.0336L90.6808 28.5492C89.8786 29.2684 88.6627 28.385 89.0988 27.3998L92.4436 19.8449C92.6501 19.3783 92.4723 18.8311 92.031 18.5751L84.8844 14.429C83.9524 13.8883 84.4169 12.4589 85.4886 12.5692L93.7074 13.4156C94.2149 13.4679 94.6804 13.1297 94.7875 12.6309L96.5223 4.5528Z" fill="#FED97C"/>
<path d="M136.522 4.5528C136.749 3.49942 138.251 3.49942 138.478 4.5528L140.212 12.6309C140.32 13.1297 140.785 13.4679 141.293 13.4156L149.511 12.5692C150.583 12.4589 151.048 13.8883 150.116 14.429L142.969 18.5751C142.528 18.8311 142.35 19.3783 142.556 19.8449L145.901 27.3998C146.337 28.385 145.121 29.2684 144.319 28.5492L138.168 23.0336C137.788 22.6929 137.212 22.6929 136.832 23.0336L130.681 28.5492C129.879 29.2684 128.663 28.385 129.099 27.3998L132.444 19.8449C132.65 19.3783 132.472 18.8311 132.031 18.5751L124.884 14.429C123.952 13.8883 124.417 12.4589 125.489 12.5692L133.707 13.4156C134.215 13.4679 134.68 13.1297 134.788 12.6309L136.522 4.5528Z" fill="#FED97C"/>
<path d="M176.522 4.5528C176.749 3.49942 178.251 3.49942 178.478 4.5528L180.212 12.6309C180.32 13.1297 180.785 13.4679 181.293 13.4156L189.511 12.5692C190.583 12.4589 191.048 13.8883 190.116 14.429L182.969 18.5751C182.528 18.8311 182.35 19.3783 182.556 19.8449L185.901 27.3998C186.337 28.385 185.121 29.2684 184.319 28.5492L178.168 23.0336C177.788 22.6929 177.212 22.6929 176.832 23.0336L170.681 28.5492C169.879 29.2684 168.663 28.385 169.099 27.3998L172.444 19.8449C172.65 19.3783 172.472 18.8311 172.031 18.5751L164.884 14.429C163.952 13.8883 164.417 12.4589 165.489 12.5692L173.707 13.4156C174.215 13.4679 174.68 13.1297 174.788 12.6309L176.522 4.5528Z" fill="#FED97C"/>
</svg>
