<svg width="21" height="20" viewBox="0 0 21 20" fill="none" xmlns="http://www.w3.org/2000/svg">
<path d="M9.57112 0.0213566C4.33021 0.529804 0.336943 5.03934 0.505122 10.2685C0.555967 11.7899 0.884501 13.108 1.5533 14.4495C2.52718 16.4129 4.08381 17.9695 6.05111 18.9473C9.23868 20.5352 13.009 20.3162 15.9815 18.3724C17.1431 17.6136 18.246 16.4872 18.9969 15.2904C19.2864 14.8367 19.7166 13.9528 19.9122 13.4209C20.1116 12.8812 20.3424 11.9503 20.4245 11.3441C20.5145 10.73 20.5262 9.30638 20.448 8.76273C20.2172 7.13961 19.701 5.75507 18.8444 4.4644C18.4846 3.91684 18.1209 3.47097 17.6124 2.95862C16.0519 1.38243 14.1119 0.404648 11.8943 0.0761127C11.4172 0.00571251 10.0717 -0.0255775 9.57112 0.0213566ZM10.811 2.70439C10.9948 2.7787 11.1551 2.93124 11.2529 3.11897C11.3233 3.25977 11.3272 3.40057 11.3272 7.04184C11.3272 9.11865 11.339 10.8161 11.3585 10.8161C11.3742 10.8161 11.8278 10.3741 12.3637 9.83829C13.2711 8.927 13.3571 8.85269 13.5487 8.79793C13.8069 8.71971 13.9985 8.751 14.241 8.90353C14.4444 9.0326 14.6126 9.32985 14.6126 9.56452C14.6126 9.93216 14.636 9.90478 12.7822 11.7665C11.82 12.7325 10.9713 13.5539 10.897 13.593C10.6858 13.6986 10.5215 13.722 10.2986 13.6712C10.0991 13.6243 10.0483 13.5773 8.31956 11.8564C7.13058 10.6714 6.52435 10.0417 6.47351 9.93607C6.37964 9.73661 6.37964 9.43545 6.47351 9.22816C6.59475 8.9622 6.93111 8.74318 7.22053 8.74318C7.51778 8.74318 7.60382 8.80576 8.62854 9.82656C9.18001 10.3702 9.64152 10.8161 9.65717 10.8161C9.67281 10.8161 9.68455 9.11865 9.68455 7.04184C9.68455 3.40057 9.68846 3.25977 9.75886 3.11897C9.96615 2.72004 10.4198 2.54012 10.811 2.70439ZM14.0024 14.8093C14.636 14.9697 14.8238 15.8028 14.3271 16.2408C14.2488 16.3112 14.1198 16.3855 14.0376 16.4051C13.8343 16.4638 7.17751 16.4638 6.97413 16.4051C6.892 16.3855 6.76293 16.3112 6.68471 16.2408C6.19973 15.8145 6.364 15.0088 6.97413 14.8172C7.17751 14.7546 13.756 14.7468 14.0024 14.8093Z" fill="white"/>
</svg>
