<svg width="51" height="50" viewBox="0 0 51 50" fill="none" xmlns="http://www.w3.org/2000/svg">
<path d="M24.1315 0.149712C23.897 0.23764 23.516 0.491665 23.2913 0.716377C22.5097 1.49798 22.5585 0.491665 22.5585 14.8244V27.5841L20.585 25.6105C18.4746 23.51 18.1034 23.2462 17.2925 23.2364C16.5792 23.2364 16.1005 23.4416 15.5534 23.9692C14.7425 24.7606 14.5666 25.6789 15.0356 26.7048C15.1528 26.9686 16.335 28.2192 18.758 30.6324C21.943 33.7979 22.3827 34.1985 22.9493 34.4622C24.2488 35.068 25.6752 35.0778 27.0039 34.5013C27.5217 34.2668 27.9907 33.8467 31.1953 30.6715C33.8332 28.0531 34.8493 26.9784 34.9861 26.6657C35.2303 26.1381 35.2401 25.2784 35.0154 24.7508C34.6637 23.891 33.6769 23.2364 32.7683 23.2364C31.889 23.2462 31.5568 23.4807 29.4269 25.6105L27.4436 27.5841V14.8244C27.4436 0.491665 27.4924 1.49798 26.7108 0.716377C26.0367 0.0324707 25.0597 -0.172703 24.1315 0.149712Z" fill="#20C0CA"/>
<path d="M1.56467 22.7186C0.958925 22.9335 0.35318 23.5686 0.138238 24.2134C-0.00831332 24.6628 -0.0278535 24.9364 0.030767 26.1088C0.245709 30.7594 1.67214 35.107 4.21236 38.8881C6.09799 41.7116 8.97039 44.4766 11.8135 46.2449C18.5939 50.4461 26.879 51.1593 34.3531 48.199C37.5381 46.9386 40.3519 45.0237 42.9312 42.376C47.2594 37.9306 49.7019 32.2933 49.9852 26.0893C50.0536 24.4479 49.9266 23.9301 49.2818 23.2852C48.3243 22.3278 46.8197 22.3278 45.8622 23.2852C45.3249 23.8226 45.1588 24.36 45.0904 25.8743C45.0122 27.4375 44.8168 28.7565 44.4358 30.1732C42.5502 37.2467 36.864 42.8156 29.7611 44.5352C19.0531 47.134 8.25718 40.6369 5.51179 29.9387C5.16983 28.5904 4.87673 26.4898 4.87673 25.3272C4.87673 24.4186 4.65202 23.7933 4.14397 23.2852C3.46984 22.6013 2.49283 22.3962 1.56467 22.7186Z" fill="#20C0CA"/>
</svg>
