<svg width="37" height="50" viewBox="0 0 37 50" fill="none" xmlns="http://www.w3.org/2000/svg">
<path d="M13.0962 0.107029C10.2424 0.566377 7.71109 2.0617 6.04962 4.24115C4.8084 5.88308 3.81152 8.72712 3.81152 10.6329V11.1118L5.25798 11.0825L6.69466 11.0532L6.7533 10.3202C7.0465 6.86041 9.51916 3.97727 12.9496 3.0879C13.9465 2.82402 15.6764 2.80447 16.6537 3.02926C18.2077 3.39087 19.4196 4.04569 20.5435 5.12076C22.0877 6.59653 22.8695 8.23845 23.1139 10.5352L23.1725 11.102H24.5799C25.352 11.102 26.0068 11.0727 26.0361 11.0239C26.1143 10.887 25.8895 9.19624 25.655 8.24823C24.746 4.61254 22.1952 1.78804 18.755 0.60547C18.3445 0.468643 17.6799 0.282949 17.289 0.194989C16.2921 -0.0200243 14.1322 -0.0688906 13.0962 0.107029Z" fill="#6019FA"/>
<path d="M13.5654 6.01017C12.461 6.37178 11.5814 7.10479 11.0927 8.06257C10.5454 9.14742 10.5552 8.98127 10.5552 17.875V26.0749L10.1447 25.8305C8.91329 25.1171 7.14432 24.7848 5.63922 24.9705C3.50863 25.2441 1.93512 26.1139 0.459347 27.8438L0 28.3814L6.45041 35.2032L12.9008 42.0347V46.0125V50H23.6515H34.4022V47.1657V44.3315L35.6727 41.7904L36.9432 39.2493V31.1472C36.9432 23.3676 36.9335 23.0256 36.7478 22.4294C36.308 20.9927 35.3209 19.9861 33.894 19.4974C32.9655 19.1846 31.6559 19.2531 30.786 19.6635L30.1508 19.9665L29.711 19.5267C29.4569 19.2726 28.9682 18.9403 28.5382 18.7351C27.8247 18.393 27.7661 18.3832 26.6812 18.3832C25.655 18.3832 25.5084 18.4028 24.9709 18.6569C24.6582 18.8035 24.2477 19.038 24.062 19.1749L23.7395 19.429L23.5244 19.2335C23.4072 19.1162 23.0065 18.8817 22.6253 18.7057C21.99 18.4125 21.8727 18.3832 20.915 18.3832C20.3481 18.3832 19.7715 18.4125 19.6249 18.4614L19.3512 18.5298V14.1807C19.3512 9.25492 19.3121 8.9324 18.6769 7.85733C18.2273 7.12433 17.3868 6.4011 16.6147 6.09813C15.8426 5.80493 14.3375 5.75607 13.5654 6.01017ZM15.7449 8.98127C16.4485 9.45039 16.4192 9.06923 16.4192 16.9368V24.0029H17.8852H19.3512V23.1917C19.3512 22.6249 19.4001 22.2926 19.5271 22.0482C20.0451 21.0025 21.5893 21.0025 22.1073 22.0482C22.2344 22.2926 22.2832 22.6249 22.2832 23.1917V24.0029H23.7492H25.2152V23.1917C25.2152 22.2632 25.3814 21.8332 25.8994 21.4814C26.3392 21.1882 27.0233 21.1882 27.4729 21.4911C27.9811 21.8234 28.1472 22.2535 28.1472 23.1917V24.0029H29.6132H31.0792V23.6804C31.0792 22.5662 32.4182 21.8528 33.3369 22.4685C34.0503 22.9376 34.0112 22.488 34.0112 31.0495V38.7313L32.7407 41.331L31.4702 43.9308V45.5043V47.068H23.6515H15.8328V43.9405V40.8033L10.0568 34.6558C6.88044 31.2743 4.28073 28.4791 4.27095 28.4302C4.24163 28.3032 5.37534 27.9318 6.01061 27.8634C6.77293 27.7754 7.7014 27.9416 8.50281 28.3129C9.05012 28.5671 9.42151 28.8896 11.3175 30.7758L13.4872 32.9357V21.3641C13.4872 9.97815 13.4872 9.77291 13.6827 9.46016C14.1127 8.76625 15.0803 8.53169 15.7449 8.98127Z" fill="#6019FA"/>
</svg>
